<svg xmlns="http://www.w3.org/2000/svg" width="16" height="16" viewBox="0 0 16 16" xmlns:xlink="http://www.w3.org/1999/xlink"><defs><path id="b" d="M0 0h840v256H0z"/><filter id="a" width="200%" height="200%" x="-50%" y="-50%" filterUnits="objectBoundingBox"><feOffset dy="1" in="SourceAlpha" result="shadowOffsetInner1"/><feComposite in="shadowOffsetInner1" in2="SourceAlpha" operator="arithmetic" k2="-1" k3="1" result="shadowInnerInner1"/><feColorMatrix values="0 0 0 0 0.945098039 0 0 0 0 0.956862745 0 0 0 0 0.960784314 0 0 0 1 0" in="shadowInnerInner1"/></filter></defs><g fill="none" fill-rule="evenodd" transform="translate(-388 -48)"><use fill="#000" filter="url(#a)" xlink:href="#b"/><path fill="#51575B" d="M396 49.441c2.136 0 2.39.009 3.233.047.78.036 1.203.166 1.485.276.374.145.64.318.92.598.28.28.453.546.598.92.11.282.24.705.276 1.485.038.844.047 1.097.047 3.233s-.009 2.39-.047 3.233c-.036.78-.166 1.203-.276 1.485-.145.374-.318.64-.598.92-.28.28-.546.453-.92.598-.282.11-.705.24-1.485.276-.844.038-1.097.047-3.233.047s-2.39-.009-3.233-.047c-.78-.036-1.203-.166-1.485-.276a2.478 2.478 0 0 1-.92-.598 2.479 2.479 0 0 1-.598-.92c-.11-.282-.24-.705-.276-1.485-.038-.844-.047-1.097-.047-3.233s.009-2.39.047-3.233c.036-.78.166-1.203.276-1.485.145-.374.318-.64.598-.92.28-.28.546-.453.92-.598.282-.11.705-.24 1.485-.276.844-.038 1.097-.047 3.233-.047m-3.298-1.393c-.852.039-1.433.174-1.942.372a3.921 3.921 0 0 0-1.417.923 3.9 3.9 0 0 0-.923 1.417c-.198.509-.333 1.09-.372 1.942-.039.853-.048 1.125-.048 3.298s.01 2.445.048 3.298c.039.852.174 1.433.372 1.942.204.526.478.973.923 1.417a3.9 3.9 0 0 0 1.417.923c.509.198 1.09.333 1.942.372.853.039 1.125.048 3.298.048s2.445-.01 3.298-.048c.852-.039 1.433-.174 1.942-.372a3.921 3.921 0 0 0 1.417-.923 3.9 3.9 0 0 0 .923-1.417c.198-.509.333-1.09.372-1.942.039-.853.048-1.125.048-3.298s-.01-2.445-.048-3.298c-.039-.852-.174-1.433-.372-1.942a3.921 3.921 0 0 0-.923-1.417 3.921 3.921 0 0 0-1.417-.923c-.509-.198-1.09-.333-1.942-.372-.853-.039-1.125-.048-3.298-.048s-2.445.01-3.298.048zM396 51.862a4.138 4.138 0 1 0 0 8.276 4.138 4.138 0 0 0 0-8.276zm0 6.824a2.686 2.686 0 1 1 0-5.372 2.686 2.686 0 0 1 0 5.372zm5.057-7.008a.92.92 0 1 1-1.839 0 .92.92 0 0 1 1.84 0z"/></g></svg>