<svg xmlns="http://www.w3.org/2000/svg" width="16" height="16" viewBox="0 0 16 16" xmlns:xlink="http://www.w3.org/1999/xlink"><defs><path id="b" d="M0 0h840v256H0z"/><filter id="a" width="200%" height="200%" x="-50%" y="-50%" filterUnits="objectBoundingBox"><feOffset dy="1" in="SourceAlpha" result="shadowOffsetInner1"/><feComposite in="shadowOffsetInner1" in2="SourceAlpha" operator="arithmetic" k2="-1" k3="1" result="shadowInnerInner1"/><feColorMatrix values="0 0 0 0 0.945098039 0 0 0 0 0.956862745 0 0 0 0 0.960784314 0 0 0 1 0" in="shadowInnerInner1"/></filter></defs><g fill="none" fill-rule="evenodd" transform="translate(-340 -48)"><use fill="#000" filter="url(#a)" xlink:href="#b"/><path fill="#51575B" d="M355.117 48h-14.234a.883.883 0 0 0-.883.883v14.234c0 .488.395.883.883.883h7.663v-6.196h-2.085v-2.415h2.085v-1.78c0-2.067 1.262-3.192 3.106-3.192.883 0 1.642.065 1.863.095v2.16h-1.279c-1.002 0-1.196.476-1.196 1.176v1.541h2.39l-.31 2.415h-2.08V64h4.077a.883.883 0 0 0 .883-.883V48.883a.883.883 0 0 0-.883-.883"/></g></svg>