<svg width="18" height="16" viewBox="0 0 18 16" xmlns="http://www.w3.org/2000/svg"><path d="M15.197 3.214a3.527 3.527 0 0 0 1.555-1.955 7.297 7.297 0 0 1-2.233.855A3.64 3.64 0 0 0 11.923 1a3.524 3.524 0 0 0-3.53 3.53c0 .28.02.558.08.818-2.932-.16-5.524-1.496-7.28-3.63-.3.518-.478 1.057-.478 1.715 0 1.217.618 2.293 1.575 2.932a3.588 3.588 0 0 1-1.594-.44c0 1.756 1.217 3.192 2.832 3.51a3.666 3.666 0 0 1-1.598.06 3.524 3.524 0 0 0 3.292 2.454c-1.197.954-2.732 1.672-4.387 1.672-.28 0-.56-.02-.838-.06C1.555 14.56 3.43 15 5.424 15c6.5 0 10.05-5.385 10.05-10.05v-.46a7.321 7.321 0 0 0 1.756-1.835 6.94 6.94 0 0 1-2.032.56z" fill="#51575B" fill-rule="evenodd"/></svg>