<svg xmlns="http://www.w3.org/2000/svg" width="19" height="16" viewBox="0 0 19 16" xmlns:xlink="http://www.w3.org/1999/xlink"><defs><path id="b" d="M0 0h840v256H0z"/><filter id="a" width="200%" height="200%" x="-50%" y="-50%" filterUnits="objectBoundingBox"><feOffset dy="1" in="SourceAlpha" result="shadowOffsetInner1"/><feComposite in="shadowOffsetInner1" in2="SourceAlpha" operator="arithmetic" k2="-1" k3="1" result="shadowInnerInner1"/><feColorMatrix values="0 0 0 0 0.945098039 0 0 0 0 0.956862745 0 0 0 0 0.960784314 0 0 0 1 0" in="shadowInnerInner1"/></filter></defs><g fill="none" fill-rule="evenodd" transform="translate(-436 -48)"><use fill="#000" filter="url(#a)" xlink:href="#b"/><path fill="#51575B" d="M454.846 50.928l-.01-.01-.007-.003-5.703-2.85a.633.633 0 0 0-.277-.064.653.653 0 0 0-.553.3l-3.283 5.335 4.12 6.695 5.731-9.312a.07.07 0 0 0-.018-.091zm-11.641 1.493v6.073l5.398 2.699-5.398-8.772zm6.209 9.177l4.443 2.222c.579.29 1.047.087 1.047-.452V52.676l-5.49 8.922zm-7.146-10.662l-5.57-2.785a.639.639 0 0 0-.283-.074c-.244 0-.415.19-.415.506v12.025c0 .322.236.703.523.847l4.906 2.452a.798.798 0 0 0 .354.093c.305 0 .518-.236.518-.632V50.991a.061.061 0 0 0-.033-.055z"/></g></svg>