<svg width="21" height="16" viewBox="0 0 21 16" xmlns="http://www.w3.org/2000/svg"><path d="M15.948 1l-.298.051v.4c0 .047.142.086.181.115.038.032.14.049.182.049l.377.019c.427.02.557.113.724.269.163.162.19.437.063.823L13.5 12.325l-.14-.042-2.336-5.253c.034-.08.055-.123.055-.123l1.912-3.93c.223-.415.438-.785.547-.958.2-.315.297-.374.841-.402.112 0 .154-.054.154-.165v-.397l-.028-.043s-2.285-.007-3.326 0l.001.44c0 .048-.027.086.01.116.04.032.056.048.098.048l.156.02c.426.02.616.142.674.22.102.137.15.284-.097.874L10.55 5.954l-1.33-2.99c-.437-.956-.545-1.252.113-1.307l.177-.04c.127 0 .107-.05.107-.146v-.418c-.014-.034-2.45-.034-3.562-.034l-.015.041v.42c0 .093.092.118.265.144.615.088.605.159 1.213 1.485.091.199.36.798.36.798L9.263 6.9l.404.982-2.017 4.417-.115-.033S4.407 5.02 3.502 2.594c-.095-.25-.137-.437-.137-.552 0-.246.202-.38.607-.397l.615-.023c.126 0 .332-.052.332-.162v-.398l-.186-.042s-3.832-.005-4.606 0L0 1.062v.419c0 .075.1.122.274.141.476.03.796.112.946.251.15.14.311.496.521 1.048C2.88 5.923 5.297 11.28 6.473 14.33c.339.832.766.961 1.282-.027.532-1.084 1.605-3.49 2.388-5.265.732 1.772 1.729 4.168 2.21 5.254.383.87.82.955 1.262.026 1.16-2.829 4.543-11.343 4.543-11.343.146-.417.351-.739.614-.973.262-.23.651-.36 1.196-.387.111 0 .154-.055.154-.163v-.4L20.108 1h-4.16z" fill="#51575B" fill-rule="evenodd"/></svg>