<svg xmlns="http://www.w3.org/2000/svg" width="16" height="16" viewBox="0 0 16 16" xmlns:xlink="http://www.w3.org/1999/xlink"><defs><path id="b" d="M0 0h840v256H0z"/><filter id="a" width="200%" height="200%" x="-50%" y="-50%" filterUnits="objectBoundingBox"><feOffset dy="1" in="SourceAlpha" result="shadowOffsetInner1"/><feComposite in="shadowOffsetInner1" in2="SourceAlpha" operator="arithmetic" k2="-1" k3="1" result="shadowInnerInner1"/><feColorMatrix values="0 0 0 0 0.945098039 0 0 0 0 0.956862745 0 0 0 0 0.960784314 0 0 0 1 0" in="shadowInnerInner1"/></filter></defs><g fill="none" fill-rule="evenodd" transform="translate(-487 -48)"><use fill="#000" filter="url(#a)" xlink:href="#b"/><path fill="#51575B" d="M495 48c-4.418 0-8 3.672-8 8.203 0 3.624 2.292 6.698 5.471 7.782.4.076.546-.177.546-.395 0-.194-.007-.71-.01-1.395-2.226.496-2.695-1.1-2.695-1.1-.364-.947-.889-1.2-.889-1.2-.726-.508.055-.498.055-.498.803.058 1.225.846 1.225.846.714 1.253 1.873.89 2.329.68.073-.529.28-.89.508-1.095-1.777-.207-3.644-.911-3.644-4.054 0-.896.311-1.628.823-2.201-.082-.208-.357-1.042.079-2.171 0 0 .671-.22 2.2.84a7.485 7.485 0 0 1 2.002-.276c.68.004 1.364.095 2.003.277 1.527-1.062 2.198-.841 2.198-.841.436 1.129.162 1.963.08 2.17.513.574.822 1.306.822 2.202 0 3.15-1.87 3.844-3.652 4.047.286.253.542.754.542 1.52 0 1.096-.01 1.98-.01 2.25 0 .219.145.474.55.394 3.177-1.087 5.467-4.16 5.467-7.782 0-4.53-3.582-8.203-8-8.203"/></g></svg>